<svg xmlns="http://www.w3.org/2000/svg" viewBox="0 0 96 96">
  <rect width="96" height="96" rx="24" fill="#020617"/>
  <g transform="rotate(-6 48 48)">
    <path fill="#f43f5e" fill-rule="evenodd" d="M22.1 9.4h51.6c5.9 0 10.3 5.3 9.2 11.1l-10.3 55A10.5 10.5 0 0 1 62.2 84H11.1C5.2 84 .8 78.7 1.9 72.9l3.4-17.8a10.6 10.6 0 0 0 0-20.2l3.4-17A13.7 13.7 0 0 1 22.1 9.4Z M1 38a10 10 0 1 1 0 20V38Z"/>
    <path fill="#fff" d="M27.3 27.6h44.9l-2.9 15.1H54.5l-6.1 31.2H30.7l6.1-31.2H24.4l2.9-15.1Z"/>
  </g>
</svg>
