<svg xmlns="http://www.w3.org/2000/svg" viewBox="0 0 1320 420">
  <g transform="translate(54 42) rotate(-6 150 168)">
    <path fill="#f43f5e" fill-rule="evenodd" d="M74 0h192c24 0 42 22 38 46l-39 205a58 58 0 0 1-56 47H19c-24 0-42-22-38-46l13-66a40 40 0 0 0 0-76L6 46C12 19 36 0 74 0Z M-27 121a38 38 0 1 1 0 76v-76Z"/>
    <path fill="#fff" d="M94 68h167l-11 56h-55l-23 116h-66l23-116H83l11-56Z"/>
  </g>
  <g fill="#fff" font-family="Arial, Helvetica, sans-serif" font-size="174" font-weight="900" letter-spacing="22">
    <text x="378" y="247">TARDEA</text>
  </g>
  <circle cx="1238" cy="213" r="22" fill="#f43f5e"/>
</svg>
